<?xml version="1.0" encoding="utf-8"?>
<!-- Generator: Adobe Illustrator 25.4.1, SVG Export Plug-In . SVG Version: 6.00 Build 0)  -->
<svg version="1.1" id="Layer_1" xmlns="http://www.w3.org/2000/svg" xmlns:xlink="http://www.w3.org/1999/xlink" x="0px" y="0px"
	 viewBox="0 0 366 520" style="enable-background:new 0 0 366 520;" xml:space="preserve">
<g>
	<path d="M8.3,408.3h14v42h-14V408.3z"/>
	<path d="M8.3,352.3h14v42h-14V352.3z"/>
	<path d="M8.3,296.3h14v42h-14V296.3z"/>
	<path d="M8.3,464.3h14v42h-14V464.3z"/>
	<path d="M253,499h42v14h-42V499z"/>
	<path d="M197,499h42v14h-42V499z"/>
	<path d="M8.3,240.3h14v42h-14V240.3z"/>
	<path d="M29,499h42v14H29V499z"/>
	<path d="M37.4,9H8.3v49.3h14V23h15.1V9z"/>
	<path d="M51.4,9h42v14h-42V9z"/>
	<path d="M8.3,184.3h14v42h-14V184.3z"/>
	<path d="M85,499h42v14H85V499z"/>
	<path d="M8.3,72.3h14v42h-14V72.3z"/>
	<path d="M8.3,128.3h14v42h-14V128.3z"/>
	<path d="M141,499h42v14h-42V499z"/>
	<path d="M340.9,121l3.4,2.8v32.5h14v-38.1l-7.3-7.3L340.9,121z"/>
	<path d="M344.3,170.3h14v42h-14L344.3,170.3z"/>
	<path d="M219.4,9v14h23.5l9,9L262,21.9L249.1,9L219.4,9z"/>
	<path d="M271.8,32.1l29.7,29.7l-9.9,9.9L261.9,42L271.8,32.1z"/>
	<path d="M311.4,71.1l29.7,29.7l-9.9,9.9L301.5,81L311.4,71.1z"/>
	<path d="M344.3,226.3h14v42h-14L344.3,226.3z"/>
	<path d="M344.3,338.3h14v42h-14L344.3,338.3z"/>
	<path d="M344.3,450.3h14v42h-14L344.3,450.3z"/>
	<path d="M309,499h42v14h-42V499z"/>
	<path d="M163.4,9h42v14h-42V9z"/>
	<path d="M344.3,282.3h14v42h-14L344.3,282.3z"/>
	<path d="M107.4,9h42v14h-42V9z"/>
	<path d="M344.3,394.3h14v42h-14L344.3,394.3z"/>
	<path d="M277.1,303l-42-42l42-42L225,166.9l-42,42l-42-42L88.9,219l42,42l-42,42l52.1,52.1l42-42l42,42L277.1,303z M141,334.9
		L109.1,303l42-42l-42-42l31.9-31.9l42,42l42-42l31.9,31.9l-42,42l42,42L225,334.9l-42-42L141,334.9z"/>
	<path d="M292.2,121H323v14h-30.8V121z"/>
	<path d="M232.3,135h37.5v-14h-23.5V97.5h-14V135z"/>
	<path d="M232.3,44.3h14v30.8h-14V44.3z"/>
</g>
</svg>
