<?xml version="1.0" encoding="utf-8"?>
<!-- Generator: Adobe Illustrator 25.4.1, SVG Export Plug-In . SVG Version: 6.00 Build 0)  -->
<svg version="1.1" id="Layer_1" xmlns="http://www.w3.org/2000/svg" xmlns:xlink="http://www.w3.org/1999/xlink" x="0px" y="0px"
	 viewBox="0 0 360 520" style="enable-background:new 0 0 360 520;" xml:space="preserve">
<g>
	<path d="M5.3,71.3h14v42h-14V71.3z"/>
	<path d="M5.3,183.3h14v42h-14V183.3z"/>
	<path d="M5.3,127.3h14v42h-14V127.3z"/>
	<path d="M5.3,351.3h14v42h-14V351.3z"/>
	<path d="M5.3,407.3h14v42h-14V407.3z"/>
	<path d="M341.3,225.3h14v42h-14L341.3,225.3z"/>
	<path d="M5.3,239.3h14v42h-14V239.3z"/>
	<path d="M341.3,169.3h14v42h-14L341.3,169.3z"/>
	<path d="M5.3,295.3h14v42h-14V295.3z"/>
	<path d="M34.4,8H5.3v49.3h14V22h15.1V8z"/>
	<path d="M82,498h42v14H82V498z"/>
	<path d="M341.3,449.3h14v42h-14L341.3,449.3z"/>
	<path d="M341.3,337.3h14v42h-14L341.3,337.3z"/>
	<path d="M341.3,393.3h14v42h-14L341.3,393.3z"/>
	<path d="M348,109.9L337.9,120l3.4,2.8v32.5h14v-38.1L348,109.9z"/>
	<path d="M138,498h42v14h-42V498z"/>
	<path d="M26,498h42v14H26V498z"/>
	<path d="M250,498h42v14h-42V498z"/>
	<path d="M341.3,281.3h14v42h-14L341.3,281.3z"/>
	<path d="M194,498h42v14h-42V498z"/>
	<path d="M306,498h42v14h-42V498z"/>
	<path d="M160.4,8h42v14h-42V8z"/>
	<path d="M248.9,31L259,20.9L246.1,8h-29.7v14h23.5L248.9,31z"/>
	<path d="M5.3,463.3h14v42h-14V463.3z"/>
	<path d="M338.5,100.2l-9.9,9.9l-29.7-29.7l9.9-9.9L338.5,100.2z"/>
	<path d="M48.4,8h42v14h-42V8z"/>
	<path d="M104.4,8h42v14h-42V8z"/>
	<path d="M298.3,60.6l-9.9,9.9l-29.7-29.7l9.9-9.9L298.3,60.6z"/>
	<path d="M289.2,120H320v14h-30.8V120z"/>
	<path d="M229.3,134h37.5v-14h-23.5V96.5h-14V134z"/>
	<path d="M229.3,43.3h14v30.8h-14V43.3z"/>
</g>
</svg>
